<?xml version="1.0" encoding="UTF-8"?>
<svg width="243px" height="53px" viewBox="0 0 243 53" version="1.1" xmlns="http://www.w3.org/2000/svg" xmlns:xlink="http://www.w3.org/1999/xlink">
    <!-- Generator: Sketch 50.2 (55047) - http://www.bohemiancoding.com/sketch -->
    <title>Logo</title>
    <desc>Created with Sketch.</desc>
    <defs></defs>
    <g id="Homepage" stroke="none" stroke-width="1" fill="none" fill-rule="evenodd">
        <g id="#Homepage-Design" transform="translate(-98.000000, -64.000000)">
            <g id="Logo" transform="translate(98.000000, 64.000000)">
                <g id="Logo-Circle-Def-Cutout">
                    <ellipse id="Oval-3" fill="#FFFFFF" cx="27" cy="26.5" rx="27" ry="26.5"></ellipse>
                    <path d="M39.7992243,20.8874097 L54,25.3979613 C53.9610247,24.4639093 53.8695627,23.5433574 53.7341885,22.6365602 L41.862576,18.8766635 L43.8973458,16.8819645 L53.1461814,19.8086777 C50.1214393,8.41436419 39.5658923,0 26.9958426,0 C12.5477038,0 0.747805836,11.1120857 0.00207868196,25.0935729 L15.8595639,30.2151937 L13.7814016,32.2524306 L0,27.8019926 C0.0449514974,28.6996198 0.131736469,29.586549 0.26503195,30.4589591 L11.8536839,34.1977143 L9.7755216,36.2349512 L0.885518516,33.3678421 C3.97236123,44.6730042 14.4899723,53 26.9958426,53 C41.4000693,53 53.1693067,41.9549052 53.9799927,28.0332768 L37.7644545,22.8821087 L39.7992243,20.8874097 Z M20.9338864,27.336877 C15.3274213,22.5232106 18.7302237,12.9333215 26.6952133,12.5543007 C28.8370352,12.449102 30.6249615,12.7061128 33.0157056,13.4613525 C33.0393506,13.4674657 33.0629956,13.4689941 33.0866406,13.4763809 L41.4159192,16.1251964 L39.3569848,18.1435842 L32.8145931,16.0630452 C32.7849719,16.0546395 32.7571695,16.0520923 32.7270286,16.0413941 C32.6373855,16.0100638 32.5469628,15.9794976 32.4562803,15.9489314 L32.2860882,15.8949311 C32.278553,15.8926386 32.272317,15.8883084 32.2650416,15.8857612 C28.8838055,14.7787555 24.9595138,14.3052342 22.519401,16.9509932 C20.4316248,19.1115137 19.8898684,23.0914871 22.6737432,25.4412634 C26.0378301,28.3980334 30.83231,27.7535961 31.1030584,31.7712678 C31.218685,33.8938353 29.3244861,35.4481264 27.2364501,35.5996838 C25.9297386,35.6786464 24.4556933,35.5500137 22.9829471,35.1549456 L22.691412,35.061464 L18.5161194,33.801882 C18.4761048,33.7929669 18.4360902,33.7860895 18.3963354,33.7733536 L16.2981658,33.0950388 L18.376328,31.0578018 L19.2184541,31.3303504 C19.2223516,31.331624 19.2254696,31.3339165 19.2293672,31.3349353 C19.2356032,31.3372278 19.2410597,31.3377372 19.2472958,31.3400297 L23.4244072,32.6441874 C26.0323735,33.4338141 28.6790554,33.2471056 28.512501,31.8856363 C28.3576392,30.1038818 24.5297463,30.4072513 20.9338864,27.336877 Z M26.4631804,22.1441898 C27.8938332,23.2056009 36.361604,24.7219389 36.361604,31.7717772 C36.361604,38.7082658 30.097496,41.9678959 22.8673204,40.2623022 C22.6446416,40.217217 22.4133883,40.1685658 22.181875,40.1048863 C16.9929652,38.6787185 17.0558453,38.6453504 17.0558453,38.6453504 C17.0449323,38.6410202 17.0371372,38.6346523 17.0264839,38.6300673 L12.2330433,37.0803612 L14.3112056,35.0431243 L18.3487855,36.3483008 C18.3932173,36.3625651 18.4321926,36.3844708 18.4737663,36.4028106 C19.2148164,36.6422458 20.9842944,37.1998241 22.8163927,37.6713077 C22.9722939,37.7112984 23.126636,37.7548553 23.2820175,37.7928083 C28.4758642,39.0618148 33.8095023,37.4685519 33.8095023,31.7715225 C33.8095023,26.5785806 26.8498152,25.6310285 24.8776657,24.0769922 C21.8622777,21.7491217 23.3334649,15.319013 32.3297405,18.5447655 L37.2627127,20.1135755 L35.2279429,22.1082745 L32.4240607,21.2165057 C32.2980406,21.2024962 32.168123,21.1762603 32.03093,21.1204769 C31.87321,21.058071 31.7209466,21.0005046 31.5702421,20.944976 L31.0266668,20.7720223 C30.9611883,20.7511354 30.9011664,20.7220975 30.8416641,20.6922955 C26.0617349,19.1441177 25.279371,21.2300058 26.4631804,22.1441898 Z" id="Shape" fill="#FB001A" fill-rule="nonzero"></path>
                </g>
                <path d="M213,9 L226.14121,9 C228.475504,9 230.636888,9.43147208 232.711816,10.3807107 C234.786744,11.3299492 236.51585,12.5380711 238.072046,14.0913706 C239.628242,15.6446701 240.752161,17.4568528 241.70317,19.5279188 C242.567723,21.5989848 243,23.7563452 243,26 C243,28.2436548 242.567723,30.4010152 241.70317,32.4720812 C240.838617,34.5431472 239.628242,36.3553299 238.158501,37.9086294 C236.602305,39.4619289 234.873199,40.7563452 232.798271,41.6192893 C230.723343,42.5685279 228.56196,43 226.227666,43 L213,43 L213,9 Z M221.904899,35.4923858 L223.979827,35.4923858 C225.536023,35.4923858 226.919308,35.2335025 228.129683,34.8020305 C229.340058,34.284264 230.377522,33.680203 231.15562,32.8172589 C232.020173,31.9543147 232.62536,31.0050761 233.057637,29.7969543 C233.489914,28.6751269 233.74928,27.3807107 233.74928,26 C233.74928,24.6192893 233.489914,23.4111675 233.057637,22.2030457 C232.62536,20.9949239 231.933718,20.0456853 231.15562,19.1827411 C230.291066,18.319797 229.340058,17.715736 228.129683,17.1979695 C226.919308,16.680203 225.536023,16.5076142 224.066282,16.5076142 L221.991354,16.5076142 L221.991354,35.4923858 L221.904899,35.4923858 Z" id="Shape" fill="#062632" fill-rule="nonzero"></path>
                <path d="M182.123894,29.0556962 C184.353982,28.4531646 186.106195,27.4202532 187.221239,25.7848101 C188.336283,24.1493671 188.973451,22.0835443 188.973451,19.5012658 C188.973451,18.0379747 188.734513,16.7468354 188.336283,15.4556962 C187.938053,14.164557 187.300885,13.0455696 186.424779,12.0987342 C185.548673,11.1518987 184.513274,10.3772152 183.159292,9.86075949 C181.884956,9.3443038 180.292035,9 178.539823,9 L174,9 L174,15.8 L175.513274,15.8 C177.106195,15.8 178.380531,16.1443038 179.256637,16.9189873 C180.132743,17.6075949 180.530973,18.6405063 180.530973,20.0177215 C180.530973,21.3949367 180.132743,22.4278481 179.256637,23.1164557 C178.380531,23.8050633 177.185841,24.235443 175.513274,24.235443 L174,24.235443 L174,29.9164557 L181.80531,43 L192,43 L182.123894,29.0556962 Z" id="Shape" fill="#062632" fill-rule="nonzero"></path>
                <polygon id="Shape" fill="#062632" fill-rule="nonzero" points="172 9 172 29.9164557 172 43 163 43 163 9.08607595"></polygon>
                <path d="M199.123894,29.0556962 C201.353982,28.4531646 203.106195,27.4202532 204.221239,25.7848101 C205.336283,24.1493671 205.973451,22.0835443 205.973451,19.5012658 C205.973451,18.0379747 205.734513,16.7468354 205.336283,15.4556962 C204.938053,14.164557 204.300885,13.0455696 203.424779,12.0987342 C202.548673,11.1518987 201.513274,10.3772152 200.159292,9.86075949 C198.884956,9.3443038 197.292035,9 195.539823,9 L191,9 L191,15.8 L192.513274,15.8 C194.106195,15.8 195.380531,16.1443038 196.256637,16.9189873 C197.132743,17.6075949 197.530973,18.6405063 197.530973,20.0177215 C197.530973,21.3949367 197.132743,22.4278481 196.256637,23.1164557 C195.380531,23.8050633 194.185841,24.235443 192.513274,24.235443 L191,24.235443 L191,29.9164557 L198.80531,43 L209,43 L199.123894,29.0556962 Z" id="Shape" fill="#062632" fill-rule="nonzero"></path>
                <path d="M90.2054795,18.0120482 C89.2636986,17.2746988 88.3219178,16.7012048 87.380137,16.373494 C86.4383562,16.0457831 85.4965753,15.8 84.640411,15.8 C83.5273973,15.8 82.5856164,16.0457831 81.9006849,16.5373494 C81.2157534,17.0289157 80.7876712,17.6843373 80.7876712,18.5855422 C80.7876712,19.1590361 80.9589041,19.6506024 81.3013699,19.9783133 C81.6438356,20.3879518 82.1575342,20.6337349 82.6712329,20.9614458 C83.2705479,21.2072289 83.869863,21.453012 84.640411,21.6987952 C85.4109589,21.8626506 86.0958904,22.1084337 86.7808219,22.3542169 C89.6061644,23.2554217 91.7465753,24.4843373 93.0308219,26.0409639 C94.4006849,27.5975904 95,29.5638554 95,32.0216867 C95,33.660241 94.7431507,35.2168675 94.1438356,36.5277108 C93.5445205,37.8385542 92.6883562,38.9855422 91.5753425,39.9686747 C90.4623288,40.9518072 89.0924658,41.6891566 87.4657534,42.1807229 C85.8390411,42.6722892 83.9554795,43 81.9006849,43 C77.619863,43 73.6815068,41.7710843 70,39.3951807 L73.7671233,32.5951807 C75.0513699,33.7421687 76.4212329,34.5614458 77.7054795,35.053012 C78.989726,35.626506 80.2739726,35.8722892 81.4726027,35.8722892 C82.9280822,35.8722892 83.9554795,35.5445783 84.640411,34.8891566 C85.3253425,34.2337349 85.6678082,33.5783133 85.6678082,32.7590361 C85.6678082,32.2674699 85.5821918,31.8578313 85.4109589,31.5301205 C85.239726,31.2024096 84.8972603,30.8746988 84.5547945,30.546988 C84.1267123,30.2192771 83.6130137,29.973494 82.9280822,29.7277108 C82.2431507,29.4819277 81.4726027,29.1542169 80.4452055,28.9084337 C79.3321918,28.5807229 78.2191781,28.1710843 77.1061644,27.7614458 C75.9931507,27.3518072 75.0513699,26.7783133 74.1952055,26.1228916 C73.3390411,25.4674699 72.6541096,24.5662651 72.140411,23.5012048 C71.6267123,22.4361446 71.369863,21.1253012 71.369863,19.5686747 C71.369863,17.9301205 71.6267123,16.5373494 72.2260274,15.226506 C72.739726,13.9156627 73.5958904,12.8506024 74.5376712,11.8674699 C75.5650685,10.9662651 76.7636986,10.2289157 78.2191781,9.7373494 C79.6746575,9.24578313 81.3013699,9 83.0993151,9 C84.8116438,9 86.5239726,9.24578313 88.3219178,9.65542169 C90.119863,10.0650602 91.9178082,10.7204819 93.5445205,11.6216867 L90.2054795,18.0120482 Z" id="Shape" fill="#062632" fill-rule="nonzero"></path>
                <path d="M121,20.5797101 C119.013245,18.1980676 116.612583,17.0483092 113.715232,17.0483092 C112.47351,17.0483092 111.231788,17.294686 110.155629,17.705314 C109.07947,18.1980676 108.168874,18.7729469 107.34106,19.5942029 C106.596026,20.4154589 105.933775,21.3188406 105.519868,22.3864734 C105.10596,23.4541063 104.857616,24.6859903 104.857616,25.9178744 C104.857616,27.2318841 105.10596,28.3816425 105.519868,29.4492754 C105.933775,30.5169082 106.596026,31.5024155 107.34106,32.3236715 C108.168874,33.1449275 109.07947,33.7198068 110.155629,34.2125604 C111.231788,34.705314 112.390728,34.8695652 113.63245,34.8695652 C116.364238,34.8695652 118.764901,33.7198068 120.917219,31.4202899 L120.917219,41.3574879 L120.089404,41.6859903 C118.764901,42.178744 117.60596,42.5072464 116.44702,42.6714976 C115.288079,42.9178744 114.211921,43 113.135762,43 C110.900662,43 108.748344,42.589372 106.678808,41.7681159 C104.609272,40.9468599 102.788079,39.7149758 101.215232,38.236715 C99.6423841,36.6763285 98.4006623,34.8695652 97.4072848,32.8164251 C96.4139073,30.6811594 96,28.3816425 96,25.9178744 C96,23.4541063 96.4966887,21.1545894 97.4072848,19.1014493 C98.3178808,17.0483092 99.6423841,15.2415459 101.215232,13.763285 C102.788079,12.2850242 104.609272,11.0531401 106.678808,10.2318841 C108.748344,9.41062802 110.900662,9 113.218543,9 C114.543046,9 115.784768,9.16425121 117.02649,9.41062802 C118.268212,9.65700483 119.592715,10.0676329 121,10.6425121 L121,20.5797101 Z" id="Shape" fill="#062632" fill-rule="nonzero"></path>
                <path d="M124,26 C124,23.6298077 124.401376,21.3413462 125.284404,19.2980769 C126.167431,17.2548077 127.37156,15.4567308 128.896789,13.9038462 C130.422018,12.3509615 132.268349,11.125 134.43578,10.3076923 C136.603211,9.40865385 138.931193,9 141.5,9 C144.068807,9 146.396789,9.40865385 148.56422,10.3076923 C150.731651,11.2067308 152.577982,12.3509615 154.103211,13.9038462 C155.62844,15.4567308 156.832569,17.2548077 157.715596,19.2980769 C158.598624,21.3413462 159,23.6298077 159,26 C159,28.3701923 158.598624,30.6586538 157.715596,32.7019231 C156.832569,34.7451923 155.62844,36.5432692 154.103211,38.0961538 C152.577982,39.6490385 150.731651,40.875 148.56422,41.6923077 C146.396789,42.5913462 144.068807,43 141.5,43 C138.931193,43 136.603211,42.5913462 134.43578,41.6923077 C132.268349,40.7932692 130.422018,39.6490385 128.896789,38.0961538 C127.37156,36.5432692 126.167431,34.7451923 125.284404,32.7019231 C124.481651,30.6586538 124,28.3701923 124,26 Z M132.669725,26 C132.669725,27.3076923 132.91055,28.4519231 133.392202,29.5144231 C133.873853,30.5769231 134.516055,31.5576923 135.318807,32.375 C136.12156,33.1923077 137.084862,33.7644231 138.12844,34.2548077 C139.172018,34.6634615 140.376147,34.9086538 141.580275,34.9086538 C142.784404,34.9086538 143.908257,34.6634615 145.03211,34.2548077 C146.075688,33.8461538 147.038991,33.1923077 147.922018,32.375 C148.724771,31.5576923 149.366972,30.6586538 149.848624,29.5144231 C150.330275,28.4519231 150.571101,27.2259615 150.571101,26 C150.571101,24.6923077 150.330275,23.5480769 149.848624,22.4855769 C149.366972,21.4230769 148.724771,20.4423077 147.922018,19.625 C147.119266,18.8076923 146.155963,18.2355769 145.03211,17.7451923 C143.988532,17.3365385 142.784404,17.0913462 141.580275,17.0913462 C140.376147,17.0913462 139.252294,17.3365385 138.12844,17.7451923 C137.084862,18.1538462 136.12156,18.8076923 135.318807,19.625 C134.516055,20.4423077 133.873853,21.3413462 133.392202,22.4855769 C132.91055,23.5480769 132.669725,24.6923077 132.669725,26 Z" id="Shape" fill="#062632" fill-rule="nonzero"></path>
            </g>
        </g>
    </g>
</svg>